<svg xmlns="http://www.w3.org/2000/svg" width="1em" height="1em" viewBox="0 0 32 32" fill="none" class="rd-navbar_btn_icon"><path d="M28.051 10.5433C27.4244 9.05909 26.504 7.71234 25.347 6.57944C24.19 5.44655 22.812 4.54278 21.2962 3.92923C19.783 3.31568 18.1606 3 16.52 3H15.0016C11.8192 3 8.7668 4.23728 6.5152 6.44197C4.2636 8.64666 3 11.6329 3 14.749V27.216C3 27.5444 3.1352 27.8601 3.3718 28.0943C3.611 28.326 3.9334 28.4584 4.2688 28.4584H17.001C18.5766 28.4584 20.1366 28.1529 21.5926 27.5622C23.0486 26.9716 24.372 26.1085 25.4874 25.0164C26.6002 23.9242 27.4842 22.6309 28.0874 21.2053C28.6906 19.7796 29 18.2496 29 16.7068V15.22C29 13.6136 28.6776 12.025 28.051 10.5433ZM22.4558 18.8351C20.6046 20.4237 18.379 21.2613 16.0182 21.2613C13.6574 21.2613 11.4292 20.4237 9.5806 18.8351C9.1464 18.466 9.1048 17.8219 9.4818 17.3992C9.8614 16.9741 10.5166 16.9334 10.9508 17.3025C12.4146 18.5601 14.167 19.2246 16.0182 19.2246C17.8694 19.2246 19.6192 18.5601 21.0856 17.3025C21.5172 16.9334 22.175 16.9766 22.552 17.3992C22.9316 17.8219 22.8874 18.466 22.4558 18.8351Z" fill="currentColor"></path></svg>