<svg xmlns="http://www.w3.org/2000/svg" width="1em" height="1em" viewBox="0 0 25 24" fill="none" class="rd-navbar_link_icon"><path d="M21.25 12C21.25 12.1989 21.171 12.3897 21.0303 12.5303C20.8897 12.671 20.6989 12.75 20.5 12.75H4C3.80109 12.75 3.61032 12.671 3.46967 12.5303C3.32902 12.3897 3.25 12.1989 3.25 12C3.25 11.8011 3.32902 11.6103 3.46967 11.4697C3.61032 11.329 3.80109 11.25 4 11.25H20.5C20.6989 11.25 20.8897 11.329 21.0303 11.4697C21.171 11.6103 21.25 11.8011 21.25 12ZM4 6.75H20.5C20.6989 6.75 20.8897 6.67098 21.0303 6.53033C21.171 6.38968 21.25 6.19891 21.25 6C21.25 5.80109 21.171 5.61032 21.0303 5.46967C20.8897 5.32902 20.6989 5.25 20.5 5.25H4C3.80109 5.25 3.61032 5.32902 3.46967 5.46967C3.32902 5.61032 3.25 5.80109 3.25 6C3.25 6.19891 3.32902 6.38968 3.46967 6.53033C3.61032 6.67098 3.80109 6.75 4 6.75ZM20.5 17.25H4C3.80109 17.25 3.61032 17.329 3.46967 17.4697C3.32902 17.6103 3.25 17.8011 3.25 18C3.25 18.1989 3.32902 18.3897 3.46967 18.5303C3.61032 18.671 3.80109 18.75 4 18.75H20.5C20.6989 18.75 20.8897 18.671 21.0303 18.5303C21.171 18.3897 21.25 18.1989 21.25 18C21.25 17.8011 21.171 17.6103 21.0303 17.4697C20.8897 17.329 20.6989 17.25 20.5 17.25Z" fill="currentColor"></path></svg>