<svg xmlns="http://www.w3.org/2000/svg" width="1em" viewBox="0 0 25 24" fill="none" height="1em" class="rd-navbar_link_icon"><path d="M12.75 2.25C10.8216 2.25 8.93657 2.82183 7.33319 3.89317C5.72982 4.96451 4.48013 6.48726 3.74218 8.26884C3.00422 10.0504 2.81114 12.0108 3.18735 13.9021C3.56355 15.7934 4.49215 17.5307 5.85571 18.8943C7.21928 20.2579 8.95656 21.1865 10.8479 21.5627C12.7392 21.9389 14.6996 21.7458 16.4812 21.0078C18.2627 20.2699 19.7855 19.0202 20.8568 17.4168C21.9282 15.8134 22.5 13.9284 22.5 12C22.4973 9.41498 21.4692 6.93661 19.6413 5.10872C17.8134 3.28084 15.335 2.25273 12.75 2.25ZM12.75 20.25C11.1183 20.25 9.52326 19.7661 8.16655 18.8596C6.80984 17.9531 5.75242 16.6646 5.128 15.1571C4.50358 13.6496 4.3402 11.9908 4.65853 10.3905C4.97685 8.79016 5.76259 7.32015 6.91637 6.16637C8.07016 5.01259 9.54017 4.22685 11.1405 3.90852C12.7409 3.59019 14.3997 3.75357 15.9071 4.37799C17.4146 5.00242 18.7031 6.05984 19.6096 7.41655C20.5161 8.77325 21 10.3683 21 12C20.9975 14.1873 20.1275 16.2843 18.5809 17.8309C17.0343 19.3775 14.9373 20.2475 12.75 20.25ZM16.5 13.875C16.5 14.5712 16.2234 15.2389 15.7312 15.7312C15.2389 16.2234 14.5712 16.5 13.875 16.5H13.5V17.25C13.5 17.4489 13.421 17.6397 13.2803 17.7803C13.1397 17.921 12.9489 18 12.75 18C12.5511 18 12.3603 17.921 12.2197 17.7803C12.079 17.6397 12 17.4489 12 17.25V16.5H10.5C10.3011 16.5 10.1103 16.421 9.96967 16.2803C9.82902 16.1397 9.75 15.9489 9.75 15.75C9.75 15.5511 9.82902 15.3603 9.96967 15.2197C10.1103 15.079 10.3011 15 10.5 15H13.875C14.1734 15 14.4595 14.8815 14.6705 14.6705C14.8815 14.4595 15 14.1734 15 13.875C15 13.5766 14.8815 13.2905 14.6705 13.0795C14.4595 12.8685 14.1734 12.75 13.875 12.75H11.625C10.9288 12.75 10.2611 12.4734 9.76885 11.9812C9.27657 11.4889 9 10.8212 9 10.125C9 9.42881 9.27657 8.76113 9.76885 8.26884C10.2611 7.77656 10.9288 7.5 11.625 7.5H12V6.75C12 6.55109 12.079 6.36032 12.2197 6.21967C12.3603 6.07902 12.5511 6 12.75 6C12.9489 6 13.1397 6.07902 13.2803 6.21967C13.421 6.36032 13.5 6.55109 13.5 6.75V7.5H15C15.1989 7.5 15.3897 7.57902 15.5303 7.71967C15.671 7.86032 15.75 8.05109 15.75 8.25C15.75 8.44891 15.671 8.63968 15.5303 8.78033C15.3897 8.92098 15.1989 9 15 9H11.625C11.3266 9 11.0405 9.11853 10.8295 9.3295C10.6185 9.54048 10.5 9.82663 10.5 10.125C10.5 10.4234 10.6185 10.7095 10.8295 10.9205C11.0405 11.1315 11.3266 11.25 11.625 11.25H13.875C14.5712 11.25 15.2389 11.5266 15.7312 12.0188C16.2234 12.5111 16.5 13.1788 16.5 13.875Z" fill="currentColor"></path></svg>