<svg xmlns="http://www.w3.org/2000/svg" width="1em" height="1em" viewBox="0 0 25 24" fill="none" class="rd-navbar_link_icon"><path d="M3.75 11.25H9.07594C9.24867 11.2502 9.41605 11.31 9.5498 11.4193C9.68354 11.5286 9.77545 11.6808 9.81 11.85C9.94771 12.5282 10.3156 13.1379 10.8514 13.5758C11.3873 14.0138 12.058 14.253 12.75 14.253C13.442 14.253 14.1127 14.0138 14.6486 13.5758C15.1844 13.1379 15.5523 12.5282 15.69 11.85C15.7245 11.6808 15.8165 11.5286 15.9502 11.4193C16.0839 11.31 16.2513 11.2502 16.4241 11.25H21.75M3.75 8.25H21.75M5.25 5.25H20.25C21.0784 5.25 21.75 5.92157 21.75 6.75V17.25C21.75 18.0784 21.0784 18.75 20.25 18.75H5.25C4.42157 18.75 3.75 18.0784 3.75 17.25V6.75C3.75 5.92157 4.42157 5.25 5.25 5.25Z" stroke="currentColor" stroke-width="1.5" stroke-linecap="round" stroke-linejoin="round"></path></svg>