<svg xmlns="http://www.w3.org/2000/svg" width="1em" height="1em" viewBox="0 0 25 24" fill="none" class="rd-navbar_link_icon"><path d="M20.9003 14.863C20.7934 14.7956 20.6712 14.7562 20.5449 14.7487C20.4187 14.7412 20.2927 14.7657 20.1785 14.8199C19.8927 14.9551 19.5774 15.0158 19.2618 14.9964C18.9463 14.977 18.6408 14.8781 18.3737 14.709C18.1066 14.5399 17.8866 14.3059 17.7342 14.029C17.5818 13.752 17.5018 13.441 17.5018 13.1249C17.5018 12.8088 17.5818 12.4978 17.7342 12.2208C17.8866 11.9439 18.1066 11.7099 18.3737 11.5408C18.6408 11.3717 18.9463 11.2728 19.2618 11.2534C19.5774 11.234 19.8927 11.2947 20.1785 11.4299C20.2928 11.4842 20.419 11.5086 20.5453 11.501C20.6717 11.4933 20.794 11.4538 20.901 11.3862C21.0079 11.3185 21.096 11.2249 21.1571 11.114C21.2181 11.0032 21.2501 10.8786 21.25 10.7521V6.74989C21.25 6.35207 21.092 5.97054 20.8107 5.68923C20.5294 5.40793 20.1479 5.24989 19.75 5.24989H16.3544C16.3684 5.12539 16.3752 5.00018 16.375 4.87489C16.3743 4.41395 16.2795 3.958 16.0964 3.53499C15.9133 3.11198 15.6457 2.73083 15.31 2.4149C14.8453 1.97841 14.2664 1.68249 13.6404 1.56141C13.0144 1.44034 12.367 1.49905 11.773 1.73076C11.179 1.96247 10.6628 2.3577 10.2841 2.87067C9.90549 3.38364 9.67989 3.99338 9.63347 4.62927C9.61906 4.83612 9.62345 5.04384 9.64659 5.24989H6.25003C5.85221 5.24989 5.47067 5.40793 5.18937 5.68923C4.90807 5.97054 4.75003 6.35207 4.75003 6.74989V9.77052C4.62552 9.75656 4.50032 9.74968 4.37503 9.74989C3.91409 9.75064 3.45816 9.84548 3.03516 10.0286C2.61216 10.2117 2.231 10.4793 1.91503 10.8149C1.59679 11.1511 1.35175 11.5496 1.19539 11.9853C1.03902 12.421 0.974736 12.8843 1.00659 13.3461C1.06034 14.1593 1.40585 14.9257 1.9796 15.5045C2.55334 16.0832 3.31674 16.4354 4.12941 16.4961C4.33624 16.511 4.54401 16.5066 4.75003 16.483V19.4999C4.75003 19.8977 4.90807 20.2793 5.18937 20.5606C5.47067 20.8419 5.85221 20.9999 6.25003 20.9999H19.75C20.1479 20.9999 20.5294 20.8419 20.8107 20.5606C21.092 20.2793 21.25 19.8977 21.25 19.4999V15.4977C21.2501 15.371 21.2181 15.2463 21.1569 15.1353C21.0958 15.0243 21.0075 14.9307 20.9003 14.863ZM19.75 19.4999H6.25003V15.4977C6.25007 15.3711 6.21809 15.2466 6.15705 15.1358C6.09602 15.0249 6.00792 14.9313 5.90096 14.8636C5.79401 14.796 5.67167 14.7565 5.54534 14.7488C5.41901 14.7412 5.2928 14.7656 5.17847 14.8199C4.89269 14.9551 4.57737 15.0158 4.26183 14.9964C3.9463 14.977 3.64079 14.8781 3.3737 14.709C3.10662 14.5399 2.88664 14.3059 2.73421 14.029C2.58178 13.752 2.50184 13.441 2.50184 13.1249C2.50184 12.8088 2.58178 12.4978 2.73421 12.2208C2.88664 11.9439 3.10662 11.7099 3.3737 11.5408C3.64079 11.3717 3.9463 11.2728 4.26183 11.2534C4.57737 11.234 4.89269 11.2947 5.17847 11.4299C5.2928 11.4842 5.41901 11.5086 5.54534 11.501C5.67167 11.4933 5.79401 11.4538 5.90096 11.3862C6.00792 11.3185 6.09602 11.2249 6.15705 11.114C6.21809 11.0032 6.25007 10.8786 6.25003 10.7521V6.74989H10.6272C10.7538 6.74994 10.8783 6.71795 10.9892 6.65692C11.1 6.59588 11.1936 6.50779 11.2613 6.40083C11.329 6.29387 11.3684 6.17153 11.3761 6.0452C11.3837 5.91888 11.3593 5.79267 11.305 5.67833C11.1699 5.39255 11.1092 5.07723 11.1286 4.7617C11.148 4.44616 11.2468 4.14065 11.4159 3.87357C11.5851 3.60649 11.819 3.3865 12.0959 3.23407C12.3729 3.08164 12.6839 3.00171 13 3.00171C13.3162 3.00171 13.6272 3.08164 13.9041 3.23407C14.1811 3.3865 14.415 3.60649 14.5841 3.87357C14.7533 4.14065 14.8521 4.44616 14.8715 4.7617C14.8909 5.07723 14.8302 5.39255 14.695 5.67833C14.6408 5.79267 14.6163 5.91888 14.624 6.0452C14.6316 6.17153 14.6711 6.29387 14.7388 6.40083C14.8064 6.50779 14.9 6.59588 15.0109 6.65692C15.1218 6.71795 15.2463 6.74994 15.3728 6.74989H19.75V9.77146C19.544 9.74785 19.3362 9.74346 19.1294 9.75833C18.2565 9.82014 17.4417 10.2186 16.857 10.8696C16.2722 11.5206 15.9632 12.3733 15.995 13.2478C16.0269 14.1223 16.3972 14.9502 17.0278 15.557C17.6584 16.1637 18.5 16.5018 19.375 16.4999C19.5003 16.5001 19.6255 16.4932 19.75 16.4793V19.4999Z" fill="currentColor"></path></svg>