<svg xmlns="http://www.w3.org/2000/svg" version="1.1" xmlns:xlink="http://www.w3.org/1999/xlink" width="512" height="512" x="0" y="0" viewBox="0 0 24 24" style="enable-background:new 0 0 512 512" xml:space="preserve" class=""><g><path d="M14.502 11.986a2.591 2.591 0 1 1-5.182 0 2.591 2.591 0 0 1 5.182 0Zm0 0" fill="#00387c" opacity="1" data-original="#000000" class=""></path><path d="M12 0C5.373 0 0 5.373 0 12s5.373 12 12 12 12-5.373 12-12S18.627 0 12 0Zm7.637 15.19c-.037.827-.169 1.392-.361 1.886a3.819 3.819 0 0 1-.897 1.377 3.808 3.808 0 0 1-1.376.896c-.494.192-1.06.323-1.887.361-.829.038-1.094.047-3.205.047s-2.375-.009-3.204-.047c-.827-.038-1.392-.169-1.887-.361a3.824 3.824 0 0 1-1.377-.896 3.819 3.819 0 0 1-.897-1.377c-.192-.494-.323-1.059-.361-1.886-.038-.829-.047-1.094-.047-3.205s.009-2.375.047-3.204c.038-.827.169-1.392.361-1.887.199-.511.465-.944.897-1.376s.866-.698 1.377-.897c.494-.192 1.06-.323 1.887-.361.829-.038 1.094-.047 3.204-.047s2.376.009 3.205.047c.827.037 1.392.169 1.887.361.511.198.944.465 1.376.897.432.432.698.866.897 1.376.192.494.323 1.06.361 1.887.038.829.047 1.093.047 3.204s-.009 2.375-.047 3.205Zm-1.666-7.788a2.397 2.397 0 0 0-.582-.894 2.409 2.409 0 0 0-.894-.582c-.274-.106-.685-.233-1.443-.267-.82-.038-1.066-.045-3.141-.045s-2.321.008-3.141.045c-.757.034-1.169.161-1.443.267a2.397 2.397 0 0 0-.894.582 2.409 2.409 0 0 0-.582.894c-.106.274-.233.685-.267 1.443-.038.819-.045 1.065-.045 3.141s.008 2.321.045 3.141c.035.757.161 1.169.267 1.443.141.363.309.622.582.894.272.272.531.44.894.581.274.107.685.233 1.443.268.819.038 1.065.045 3.141.045s2.322-.008 3.141-.045c.758-.035 1.169-.161 1.443-.268.363-.141.622-.309.894-.581s.441-.531.582-.894c.106-.274.233-.685.267-1.443.038-.82.046-1.066.046-3.141s-.008-2.321-.046-3.141c-.035-.758-.161-1.169-.267-1.443Zm-6.059 8.574a3.991 3.991 0 1 1 0-7.982 3.991 3.991 0 0 1 0 7.982Zm4.149-7.207a.933.933 0 1 1-.001-1.865.933.933 0 0 1 .001 1.865Zm0 0" fill="#00387c" opacity="1" data-original="#000000" class=""></path></g></svg>