<svg xmlns="http://www.w3.org/2000/svg" version="1.1" xmlns:xlink="http://www.w3.org/1999/xlink" width="512" height="512" x="0" y="0" viewBox="0 0 24 24" style="enable-background:new 0 0 512 512" xml:space="preserve" class=""><g><path d="M10.258 9.467 14.71 12l-4.452 2.533V9.468Zm0 0" fill="#00387c" opacity="1" data-original="#000000"></path><path d="M12 0C5.373 0 0 5.373 0 12s5.373 12 12 12 12-5.373 12-12S18.627 0 12 0Zm8.16 16.126a2.141 2.141 0 0 1-1.506 1.516C17.326 18 12 18 12 18s-5.326 0-6.654-.358a2.14 2.14 0 0 1-1.506-1.516C3.483 14.789 3.483 12 3.483 12s0-2.789.357-4.126a2.138 2.138 0 0 1 1.506-1.515C6.674 6.001 12 6.001 12 6.001s5.326 0 6.654.358a2.14 2.14 0 0 1 1.506 1.515c.356 1.337.356 4.126.356 4.126s0 2.789-.356 4.126Zm0 0" fill="#00387c" opacity="1" data-original="#000000"></path></g></svg>