<svg xmlns="http://www.w3.org/2000/svg" version="1.1" xmlns:xlink="http://www.w3.org/1999/xlink" width="512" height="512" x="0" y="0" viewBox="0 0 512 512" style="enable-background:new 0 0 512 512" xml:space="preserve" class=""><g><path d="M179.152 225.527c4.127 5.727 8.292 10.385 12.319 14.889 7.265 8.125 13.219 14.808 16.454 25.024-4.993 3.649-8.257 9.536-8.257 16.187 0 7.775 4.465 14.513 10.957 17.827a19.945 19.945 0 0 0-1.007 6.24c0 8.567 5.427 15.873 13.02 18.725a19.964 19.964 0 0 0-.745 5.342c0 11.054 8.993 20.048 20.047 20.048h28.149c11.039 0 20.02-8.994 20.02-20.048 0-1.85-.272-3.634-.742-5.336 7.59-2.848 13.017-10.158 13.017-18.73 0-2.18-.361-4.274-1.006-6.24 6.492-3.314 10.956-10.052 10.956-17.827 0-6.648-3.261-12.533-8.251-16.183 3.247-10.222 9.198-16.908 16.459-25.035 4.022-4.502 8.183-9.158 12.3-14.871 11.693-16.171 17.874-35.299 17.874-55.316 0-52.226-42.488-94.715-94.714-94.715s-94.687 42.489-94.687 94.715c0 20.043 6.171 39.171 17.838 55.306zm58.247-46.382h-7.846c-4.326 0-7.846-3.52-7.846-7.846s3.52-7.818 7.846-7.818 7.846 3.507 7.846 7.818zm16 16h5.232v66.434h-5.232zm38.915 82.434c2.179 0 4.02 1.854 4.02 4.048 0 2.179-1.841 4.019-4.02 4.019h-72.626c-2.179 0-4.02-1.84-4.02-4.019 0-2.194 1.841-4.048 4.02-4.048zm-5.931 28.115c0 2.179-1.841 4.02-4.02 4.02h-52.698c-2.194 0-4.048-1.841-4.048-4.02a4.053 4.053 0 0 1 4.048-4.048h52.698c2.179 0 4.02 1.854 4.02 4.048zm-16.294 28.115H241.94c-2.194 0-4.047-1.854-4.047-4.048a4.051 4.051 0 0 1 4.047-4.047h28.149c2.179 0 4.02 1.853 4.02 4.047s-1.841 4.048-4.02 4.048zM256.001 91.507c43.403 0 78.714 35.311 78.714 78.715 0 16.629-5.131 32.516-14.847 45.951-3.635 5.044-7.511 9.381-11.259 13.576-7.808 8.739-15.847 17.741-20.087 31.83H274.63v-66.434h7.817c13.149 0 23.847-10.698 23.847-23.846s-10.697-23.818-23.847-23.818-23.817 10.685-23.817 23.818v7.846h-5.232v-7.846c0-13.134-10.697-23.818-23.846-23.818s-23.846 10.685-23.846 23.818 10.697 23.846 23.846 23.846h7.846v66.434h-13.914c-4.229-14.088-12.273-23.089-20.086-31.828-3.751-4.195-7.631-8.534-11.273-13.589-9.689-13.399-14.811-29.286-14.811-45.94 0-43.404 35.299-78.715 78.687-78.715zm18.63 87.638v-7.846c0-4.311 3.507-7.818 7.817-7.818s7.847 3.507 7.847 7.818-3.52 7.846-7.847 7.846zm-163.293-8.923a8 8 0 0 1 8-8h19.758a8 8 0 0 1 0 16h-19.758a8 8 0 0 1-8-8zm42.37-90.98a7.998 7.998 0 0 1 0-11.313 7.998 7.998 0 0 1 11.313 0l13.976 13.976a7.998 7.998 0 0 1 0 11.313c-1.562 1.562-3.609 2.343-5.657 2.343s-4.095-.781-5.657-2.343l-13.976-13.976zm94.293-25.925V33.559a8 8 0 0 1 16 0v19.758a8 8 0 0 1-16 0zm85.003 39.901a8 8 0 0 1 0-11.313l13.976-13.976a7.999 7.999 0 0 1 11.314 0 8 8 0 0 1 0 11.313l-13.976 13.976c-1.562 1.562-3.609 2.343-5.657 2.343s-4.095-.781-5.657-2.343zm31.901 77.004a8 8 0 0 1 8-8h19.758a8 8 0 0 1 0 16h-19.758a8 8 0 0 1-8-8zm102.686 137.66c10.038-12.261 15.28-29.633 15.28-46.438 0-27.295-22.206-49.5-49.501-49.5s-49.473 22.206-49.473 49.5c0 14.086 4.11 29.171 10.996 40.352 7.157 11.622 17.209 19.092 28.897 21.716-1.551 1.47-3 2.92-4.368 4.29l-57.712 57.712h-67.498c-15.212 0-27.588 12.376-27.588 27.588 0 4.127.919 8.042 2.553 11.56h-26.353a27.384 27.384 0 0 0 2.551-11.56c0-15.212-12.363-27.588-27.56-27.588h-67.527l-57.711-57.712c-1.368-1.369-2.816-2.819-4.367-4.289 11.697-2.623 21.752-10.095 28.907-21.719 6.878-11.175 10.985-26.259 10.985-40.351 0-27.295-22.193-49.5-49.473-49.5s-49.5 22.206-49.5 49.5c0 16.806 5.242 34.18 15.283 46.441C26.579 311.081 13 326.697 13 345.436v133.006a8 8 0 0 0 16 0V345.436c0-12.22 9.941-22.161 22.161-22.161 14.282 0 21.964 7.691 30.096 15.833l62.404 62.405h74.154c6.374 0 11.56 5.198 11.56 11.588s-5.186 11.56-11.56 11.56h-77.842c-4.025 0-7.227-1.327-10.075-4.175L77.88 368.44a8 8 0 1 0-11.316 11.311l26.771 26.786v71.906a8 8 0 0 0 16 0v-55.897l9.248 9.253a31.232 31.232 0 0 0 4.63 3.827v42.817a8 8 0 0 0 8 8h249.571a8 8 0 0 0 8-8v-42.817a31.243 31.243 0 0 0 4.63-3.827l9.248-9.248v55.893a8 8 0 0 0 16 0v-71.893l26.798-26.798a8 8 0 1 0-11.314-11.313L382.1 420.486c-2.849 2.849-6.051 4.177-10.075 4.177h-77.813c-6.39 0-11.588-5.186-11.588-11.56s5.198-11.588 11.588-11.588h74.125l62.405-62.406c8.133-8.143 15.814-15.833 30.124-15.833 12.204 0 22.133 9.941 22.133 22.161v133.006a8 8 0 0 0 16 0V345.437c0-18.746-13.58-34.366-31.409-37.555zM78.63 227.942c18.457 0 33.473 15.028 33.473 33.5 0 18.224-9.087 47.136-33.473 47.136-23.107 0-33.5-27.563-33.5-47.136 0-18.472 15.028-33.5 33.5-33.5zm293.396 212.719h.76v29.781H139.215v-29.781h232.812zm27.871-179.219c0-18.472 15.016-33.5 33.473-33.5s33.501 15.028 33.501 33.5c0 19.572-10.394 47.136-33.501 47.136s-33.473-27.563-33.473-47.136z" fill="#2788ed" opacity="1" data-original="#000000" class=""></path></g></svg>