<svg xmlns="http://www.w3.org/2000/svg" version="1.1" xmlns:xlink="http://www.w3.org/1999/xlink" width="512" height="512" x="0" y="0" viewBox="0 0 682.667 682.667" style="enable-background:new 0 0 512 512" xml:space="preserve" class=""><g><defs><clipPath id="a" clipPathUnits="userSpaceOnUse"><path d="M0 512h512V0H0Z" fill="#2788ed" opacity="1" data-original="#000000"></path></clipPath></defs><g clip-path="url(#a)" transform="matrix(1.33333 0 0 -1.33333 0 682.667)"><path d="M0 0c-44.567-42.205-72.444-101.882-72.444-167.897 0-127.777 103.582-231.358 231.359-231.358 108.147 0 198.955 74.213 224.299 174.49h17.038c19.926-.578 31.794 24.417 18.973 39.55l-51.675 64.394c-10.489 13.072-30.385 13.072-40.875 0l-51.674-64.394c-12.824-15.135-.949-40.128 18.972-39.55h22.469c-23.535-65.191-86.368-111.583-159.914-110.559C64.509-334.043-9.699-257.72-8.516-165.698-7.339-74.228 67.165-.452 158.915-.452c15.087 0 29.707-1.994 43.608-5.736a21.106 21.106 0 0 1 20.415 5.454l26.823 26.822c6.367 6.368 4.2 17.195-4.148 20.573-26.472 10.712-55.374 16.666-85.657 16.799-49.208.218-94.966-15.068-132.64-41.244" style="stroke-width:15;stroke-linecap:round;stroke-linejoin:round;stroke-miterlimit:10;stroke-dasharray:none;stroke-opacity:1" transform="translate(79.944 416.586)" fill="none" stroke="#2788ed" stroke-width="15" stroke-linecap="round" stroke-linejoin="round" stroke-miterlimit="10" stroke-dasharray="none" stroke-opacity="" data-original="#000000" opacity="1" class=""></path><path d="m0 0-127.695-127.696a30.983 30.983 0 0 0-14.335-8.132l-47.105-11.921 11.913 47.113a30.966 30.966 0 0 0 8.132 14.335L41.632 124.42c11.429 11.429 29.966 11.437 41.402 0a29.191 29.191 0 0 0 8.57-20.693c0-7.499-2.86-14.983-8.578-20.701L24.914 24.915" style="stroke-width:15;stroke-linecap:round;stroke-linejoin:round;stroke-miterlimit:10;stroke-dasharray:none;stroke-opacity:1" transform="translate(398.017 361.674)" fill="none" stroke="#2788ed" stroke-width="15" stroke-linecap="round" stroke-linejoin="round" stroke-miterlimit="10" stroke-dasharray="none" stroke-opacity="" data-original="#000000" opacity="1" class=""></path><path d="m0 0-34.044-34.043-41.394 41.394 34.043 34.044c11.429 11.428 29.966 11.436 41.403 0 5.71-5.711 8.569-13.21 8.569-20.694C8.577 13.202 5.718 5.718 0 0Z" style="stroke-width:15;stroke-linecap:round;stroke-linejoin:round;stroke-miterlimit:10;stroke-dasharray:none;stroke-opacity:1" transform="translate(481.043 444.7)" fill="none" stroke="#2788ed" stroke-width="15" stroke-linecap="round" stroke-linejoin="round" stroke-miterlimit="10" stroke-dasharray="none" stroke-opacity="" data-original="#000000" opacity="1" class=""></path><path d="m0 0-11.818-11.819a30.966 30.966 0 0 0-14.335-8.132l-47.105-11.921 11.913 47.113a30.949 30.949 0 0 0 8.132 14.334l11.819 11.82z" style="stroke-width:15;stroke-linecap:round;stroke-linejoin:round;stroke-miterlimit:10;stroke-dasharray:none;stroke-opacity:1" transform="translate(282.14 245.797)" fill="none" stroke="#2788ed" stroke-width="15" stroke-linecap="round" stroke-linejoin="round" stroke-miterlimit="10" stroke-dasharray="none" stroke-opacity="" data-original="#000000" opacity="1" class=""></path><path d="m0 0-41.394 41.394" style="stroke-width:15;stroke-linecap:round;stroke-linejoin:round;stroke-miterlimit:10;stroke-dasharray:none;stroke-opacity:1" transform="translate(422.93 386.588)" fill="none" stroke="#2788ed" stroke-width="15" stroke-linecap="round" stroke-linejoin="round" stroke-miterlimit="10" stroke-dasharray="none" stroke-opacity="" data-original="#000000" opacity="1" class=""></path><path d="M0 0h-83.188" style="stroke-width:15;stroke-linecap:round;stroke-linejoin:round;stroke-miterlimit:10;stroke-dasharray:none;stroke-opacity:1" transform="translate(208.882 213.925)" fill="none" stroke="#2788ed" stroke-width="15" stroke-linecap="round" stroke-linejoin="round" stroke-miterlimit="10" stroke-dasharray="none" stroke-opacity="" data-original="#000000" opacity="1" class=""></path><path d="M0 0h18.314" style="stroke-width:15;stroke-linecap:round;stroke-linejoin:round;stroke-miterlimit:10;stroke-dasharray:none;stroke-opacity:1" transform="translate(286.14 180.732)" fill="none" stroke="#2788ed" stroke-width="15" stroke-linecap="round" stroke-linejoin="round" stroke-miterlimit="10" stroke-dasharray="none" stroke-opacity="" data-original="#000000" opacity="1" class=""></path><path d="M0 0h103.82" style="stroke-width:15;stroke-linecap:round;stroke-linejoin:round;stroke-miterlimit:10;stroke-dasharray:none;stroke-opacity:1" transform="translate(147.174 180.732)" fill="none" stroke="#2788ed" stroke-width="15" stroke-linecap="round" stroke-linejoin="round" stroke-miterlimit="10" stroke-dasharray="none" stroke-opacity="" data-original="#000000" opacity="1" class=""></path><path d="m0 0 6.645 24.051" style="stroke-width:15;stroke-linecap:round;stroke-linejoin:round;stroke-miterlimit:10;stroke-dasharray:none;stroke-opacity:1" transform="translate(463.158 191.821)" fill="none" stroke="#2788ed" stroke-width="15" stroke-linecap="round" stroke-linejoin="round" stroke-miterlimit="10" stroke-dasharray="none" stroke-opacity="" data-original="#000000" opacity="1" class=""></path></g></g></svg>