<svg xmlns="http://www.w3.org/2000/svg" width="24" height="25" viewBox="0 0 24 25" fill="none" class="rd-navbar_block_card_header_arrow"><path d="M18.75 6.5V16.25C18.75 16.4489 18.671 16.6397 18.5303 16.7803C18.3897 16.921 18.1989 17 18 17C17.8011 17 17.6103 16.921 17.4697 16.7803C17.329 16.6397 17.25 16.4489 17.25 16.25V8.31031L6.53061 19.0306C6.38988 19.1714 6.19901 19.2504 5.99999 19.2504C5.80097 19.2504 5.6101 19.1714 5.46936 19.0306C5.32863 18.8899 5.24957 18.699 5.24957 18.5C5.24957 18.301 5.32863 18.1101 5.46936 17.9694L16.1897 7.25H8.24999C8.05108 7.25 7.86031 7.17098 7.71966 7.03033C7.57901 6.88968 7.49999 6.69891 7.49999 6.5C7.49999 6.30109 7.57901 6.11032 7.71966 5.96967C7.86031 5.82902 8.05108 5.75 8.24999 5.75H18C18.1989 5.75 18.3897 5.82902 18.5303 5.96967C18.671 6.11032 18.75 6.30109 18.75 6.5Z" fill="currentColor"></path></svg>