<svg xmlns="http://www.w3.org/2000/svg" version="1.1" xmlns:xlink="http://www.w3.org/1999/xlink" width="512" height="512" x="0" y="0" viewBox="0 0 24 24" style="enable-background:new 0 0 512 512" xml:space="preserve" class=""><g><path d="M22.858 1.142C21.769.052 20.195-.287 18.722.268L2.328 7.062C.392 7.791-.206 9.598.061 11.064c.268 1.468 1.464 2.948 3.534 2.948h6.379v6.394c0 2.069 1.48 3.266 2.947 3.532.219.04.445.061.674.061 1.309 0 2.708-.674 3.319-2.295l6.83-16.457a3.828 3.828 0 0 0-.886-4.105Zm-.974 3.369-6.83 16.457c-.346.915-1.145 1.118-1.774 1.004-.632-.115-1.307-.587-1.307-1.565v-7.394a1 1 0 0 0-1-1H3.595c-.979 0-1.451-.675-1.566-1.307-.114-.631.089-1.429 1.035-1.785l16.394-6.794a1.835 1.835 0 0 1 1.987.429c.535.535.695 1.278.44 1.955Z" fill="#00387c" opacity="1" data-original="#000000"></path></g></svg>